<mxfile host="Electron" modified="2023-10-12T23:25:34.049Z" agent="Mozilla/5.0 (Macintosh; Intel Mac OS X 10_15_7) AppleWebKit/537.36 (KHTML, like Gecko) draw.io/22.0.2 Chrome/114.0.5735.289 Electron/25.8.4 Safari/537.36" etag="D92rX-7ePU3qLSY-QVFL" version="22.0.2" type="device" pages="2">
  <diagram name="Page-1" id="8lsqXc_1rktnv3mVv7sb">
    <mxGraphModel dx="3267" dy="1858" grid="1" gridSize="10" guides="1" tooltips="1" connect="1" arrows="1" fold="1" page="1" pageScale="1" pageWidth="827" pageHeight="1169" math="0" shadow="0">
      <root>
        <mxCell id="0" />
        <mxCell id="1" parent="0" />
        <mxCell id="QhFBb8hKMK6KciHC4_12-1" value="" style="rounded=0;whiteSpace=wrap;html=1;" parent="1" vertex="1">
          <mxGeometry x="80" y="160" width="1280" height="2400" as="geometry" />
        </mxCell>
        <mxCell id="QhFBb8hKMK6KciHC4_12-4" value="" style="endArrow=classic;startArrow=classic;html=1;rounded=0;" parent="1" edge="1">
          <mxGeometry width="50" height="50" relative="1" as="geometry">
            <mxPoint x="120" y="80" as="sourcePoint" />
            <mxPoint x="1320" y="80" as="targetPoint" />
          </mxGeometry>
        </mxCell>
        <mxCell id="QhFBb8hKMK6KciHC4_12-5" value="&lt;font style=&quot;font-size: 30px;&quot;&gt;30 m&lt;/font&gt;" style="edgeLabel;html=1;align=center;verticalAlign=middle;resizable=0;points=[];" parent="QhFBb8hKMK6KciHC4_12-4" vertex="1" connectable="0">
          <mxGeometry x="-0.0809" y="1" relative="1" as="geometry">
            <mxPoint x="1" as="offset" />
          </mxGeometry>
        </mxCell>
        <mxCell id="QhFBb8hKMK6KciHC4_12-13" value="" style="endArrow=classic;startArrow=classic;html=1;rounded=0;" parent="1" edge="1">
          <mxGeometry width="50" height="50" relative="1" as="geometry">
            <mxPoint x="40" y="560" as="sourcePoint" />
            <mxPoint x="40" y="160" as="targetPoint" />
          </mxGeometry>
        </mxCell>
        <mxCell id="QhFBb8hKMK6KciHC4_12-14" value="&lt;font style=&quot;font-size: 30px;&quot;&gt;10 m&lt;/font&gt;" style="edgeLabel;html=1;align=center;verticalAlign=middle;resizable=0;points=[];" parent="QhFBb8hKMK6KciHC4_12-13" vertex="1" connectable="0">
          <mxGeometry x="0.0536" relative="1" as="geometry">
            <mxPoint as="offset" />
          </mxGeometry>
        </mxCell>
        <mxCell id="QhFBb8hKMK6KciHC4_12-15" value="" style="endArrow=classic;startArrow=classic;html=1;rounded=0;" parent="1" edge="1">
          <mxGeometry width="50" height="50" relative="1" as="geometry">
            <mxPoint x="40" y="960" as="sourcePoint" />
            <mxPoint x="40" y="560" as="targetPoint" />
          </mxGeometry>
        </mxCell>
        <mxCell id="QhFBb8hKMK6KciHC4_12-16" value="&lt;font style=&quot;font-size: 30px;&quot;&gt;10 m&lt;/font&gt;" style="edgeLabel;html=1;align=center;verticalAlign=middle;resizable=0;points=[];" parent="QhFBb8hKMK6KciHC4_12-15" vertex="1" connectable="0">
          <mxGeometry x="0.0536" relative="1" as="geometry">
            <mxPoint as="offset" />
          </mxGeometry>
        </mxCell>
        <mxCell id="QhFBb8hKMK6KciHC4_12-17" value="" style="endArrow=classic;startArrow=classic;html=1;rounded=0;" parent="1" edge="1">
          <mxGeometry width="50" height="50" relative="1" as="geometry">
            <mxPoint x="40" y="1360" as="sourcePoint" />
            <mxPoint x="40" y="960" as="targetPoint" />
          </mxGeometry>
        </mxCell>
        <mxCell id="QhFBb8hKMK6KciHC4_12-18" value="&lt;font style=&quot;font-size: 30px;&quot;&gt;10 m&lt;/font&gt;" style="edgeLabel;html=1;align=center;verticalAlign=middle;resizable=0;points=[];" parent="QhFBb8hKMK6KciHC4_12-17" vertex="1" connectable="0">
          <mxGeometry x="0.0536" relative="1" as="geometry">
            <mxPoint as="offset" />
          </mxGeometry>
        </mxCell>
        <mxCell id="QhFBb8hKMK6KciHC4_12-19" value="" style="endArrow=classic;startArrow=classic;html=1;rounded=0;" parent="1" edge="1">
          <mxGeometry width="50" height="50" relative="1" as="geometry">
            <mxPoint x="40" y="1760" as="sourcePoint" />
            <mxPoint x="40" y="1360" as="targetPoint" />
          </mxGeometry>
        </mxCell>
        <mxCell id="QhFBb8hKMK6KciHC4_12-20" value="&lt;font style=&quot;font-size: 30px;&quot;&gt;10 m&lt;/font&gt;" style="edgeLabel;html=1;align=center;verticalAlign=middle;resizable=0;points=[];" parent="QhFBb8hKMK6KciHC4_12-19" vertex="1" connectable="0">
          <mxGeometry x="0.0536" relative="1" as="geometry">
            <mxPoint as="offset" />
          </mxGeometry>
        </mxCell>
        <mxCell id="QhFBb8hKMK6KciHC4_12-21" value="" style="endArrow=classic;startArrow=classic;html=1;rounded=0;" parent="1" edge="1">
          <mxGeometry width="50" height="50" relative="1" as="geometry">
            <mxPoint x="40" y="2160" as="sourcePoint" />
            <mxPoint x="40" y="1760" as="targetPoint" />
          </mxGeometry>
        </mxCell>
        <mxCell id="QhFBb8hKMK6KciHC4_12-22" value="&lt;font style=&quot;font-size: 30px;&quot;&gt;10 m&lt;/font&gt;" style="edgeLabel;html=1;align=center;verticalAlign=middle;resizable=0;points=[];" parent="QhFBb8hKMK6KciHC4_12-21" vertex="1" connectable="0">
          <mxGeometry x="0.0536" relative="1" as="geometry">
            <mxPoint as="offset" />
          </mxGeometry>
        </mxCell>
        <mxCell id="QhFBb8hKMK6KciHC4_12-23" value="" style="endArrow=classic;startArrow=classic;html=1;rounded=0;" parent="1" edge="1">
          <mxGeometry width="50" height="50" relative="1" as="geometry">
            <mxPoint x="40" y="2560" as="sourcePoint" />
            <mxPoint x="40" y="2160" as="targetPoint" />
          </mxGeometry>
        </mxCell>
        <mxCell id="QhFBb8hKMK6KciHC4_12-24" value="&lt;font style=&quot;font-size: 30px;&quot;&gt;10 m&lt;/font&gt;" style="edgeLabel;html=1;align=center;verticalAlign=middle;resizable=0;points=[];" parent="QhFBb8hKMK6KciHC4_12-23" vertex="1" connectable="0">
          <mxGeometry x="0.0536" relative="1" as="geometry">
            <mxPoint as="offset" />
          </mxGeometry>
        </mxCell>
        <mxCell id="QhFBb8hKMK6KciHC4_12-26" value="" style="endArrow=classic;startArrow=classic;html=1;rounded=0;" parent="1" edge="1">
          <mxGeometry width="50" height="50" relative="1" as="geometry">
            <mxPoint x="-50" y="2560" as="sourcePoint" />
            <mxPoint x="-40" y="160" as="targetPoint" />
          </mxGeometry>
        </mxCell>
        <mxCell id="QhFBb8hKMK6KciHC4_12-27" value="&lt;font style=&quot;font-size: 30px;&quot;&gt;60 m&lt;/font&gt;" style="edgeLabel;html=1;align=center;verticalAlign=middle;resizable=0;points=[];" parent="QhFBb8hKMK6KciHC4_12-26" vertex="1" connectable="0">
          <mxGeometry x="0.0002" relative="1" as="geometry">
            <mxPoint as="offset" />
          </mxGeometry>
        </mxCell>
        <mxCell id="QhFBb8hKMK6KciHC4_12-30" value="" style="rounded=0;whiteSpace=wrap;html=1;dashed=1;dashPattern=1 1;" parent="1" vertex="1">
          <mxGeometry x="120" y="200" width="1200" height="40" as="geometry" />
        </mxCell>
        <mxCell id="QhFBb8hKMK6KciHC4_12-31" value="C" style="ellipse;whiteSpace=wrap;html=1;aspect=fixed;strokeColor=#000000;" parent="1" vertex="1">
          <mxGeometry x="-630" y="165" width="20" height="20" as="geometry" />
        </mxCell>
        <mxCell id="QhFBb8hKMK6KciHC4_12-32" value="Cisal" style="text;html=1;align=left;verticalAlign=middle;resizable=0;points=[];autosize=1;strokeColor=none;fillColor=none;" parent="1" vertex="1">
          <mxGeometry x="-600" y="160" width="50" height="30" as="geometry" />
        </mxCell>
        <mxCell id="QhFBb8hKMK6KciHC4_12-33" value="M" style="ellipse;whiteSpace=wrap;html=1;aspect=fixed;strokeColor=#82b366;fillColor=#d5e8d4;" parent="1" vertex="1">
          <mxGeometry x="-630" y="190" width="20" height="20" as="geometry" />
        </mxCell>
        <mxCell id="QhFBb8hKMK6KciHC4_12-34" value="Mandacaru sem espinho" style="text;html=1;align=left;verticalAlign=middle;resizable=0;points=[];autosize=1;strokeColor=none;fillColor=none;" parent="1" vertex="1">
          <mxGeometry x="-600" y="185" width="150" height="30" as="geometry" />
        </mxCell>
        <mxCell id="QhFBb8hKMK6KciHC4_12-35" value="P" style="ellipse;whiteSpace=wrap;html=1;aspect=fixed;strokeColor=#d6b656;fillColor=#fff2cc;" parent="1" vertex="1">
          <mxGeometry x="-630" y="215" width="20" height="20" as="geometry" />
        </mxCell>
        <mxCell id="QhFBb8hKMK6KciHC4_12-36" value="Palma Forrageira" style="text;html=1;align=left;verticalAlign=middle;resizable=0;points=[];autosize=1;strokeColor=none;fillColor=none;" parent="1" vertex="1">
          <mxGeometry x="-600" y="210" width="120" height="30" as="geometry" />
        </mxCell>
        <mxCell id="QhFBb8hKMK6KciHC4_12-37" value="12x" style="text;html=1;align=center;verticalAlign=middle;resizable=0;points=[];autosize=1;strokeColor=none;fillColor=none;" parent="1" vertex="1">
          <mxGeometry x="-662" y="210" width="40" height="30" as="geometry" />
        </mxCell>
        <mxCell id="QhFBb8hKMK6KciHC4_12-38" value="22x" style="text;html=1;align=center;verticalAlign=middle;resizable=0;points=[];autosize=1;strokeColor=none;fillColor=none;" parent="1" vertex="1">
          <mxGeometry x="-661" y="185" width="40" height="30" as="geometry" />
        </mxCell>
        <mxCell id="QhFBb8hKMK6KciHC4_12-39" value="22x" style="text;html=1;align=center;verticalAlign=middle;resizable=0;points=[];autosize=1;strokeColor=none;fillColor=none;" parent="1" vertex="1">
          <mxGeometry x="-661" y="160" width="40" height="30" as="geometry" />
        </mxCell>
        <mxCell id="QhFBb8hKMK6KciHC4_12-40" value="B" style="ellipse;whiteSpace=wrap;html=1;aspect=fixed;strokeColor=#6c8ebf;fillColor=#dae8fc;" parent="1" vertex="1">
          <mxGeometry x="-630" y="240" width="20" height="20" as="geometry" />
        </mxCell>
        <mxCell id="QhFBb8hKMK6KciHC4_12-41" value="Banana (alto)" style="text;html=1;align=left;verticalAlign=middle;resizable=0;points=[];autosize=1;strokeColor=none;fillColor=none;" parent="1" vertex="1">
          <mxGeometry x="-600" y="235" width="100" height="30" as="geometry" />
        </mxCell>
        <mxCell id="QhFBb8hKMK6KciHC4_12-42" value="E" style="ellipse;whiteSpace=wrap;html=1;aspect=fixed;strokeColor=#005700;fillColor=#008a00;fontColor=#ffffff;" parent="1" vertex="1">
          <mxGeometry x="-630" y="265" width="20" height="20" as="geometry" />
        </mxCell>
        <mxCell id="QhFBb8hKMK6KciHC4_12-43" value="Eucalipto (emergente)" style="text;html=1;align=left;verticalAlign=middle;resizable=0;points=[];autosize=1;strokeColor=none;fillColor=none;" parent="1" vertex="1">
          <mxGeometry x="-600" y="260" width="140" height="30" as="geometry" />
        </mxCell>
        <mxCell id="QhFBb8hKMK6KciHC4_12-44" value="C" style="ellipse;whiteSpace=wrap;html=1;aspect=fixed;strokeColor=#BD7000;fillColor=#f0a30a;fontColor=#000000;" parent="1" vertex="1">
          <mxGeometry x="-630" y="290" width="20" height="20" as="geometry" />
        </mxCell>
        <mxCell id="QhFBb8hKMK6KciHC4_12-45" value="Citrico" style="text;html=1;align=left;verticalAlign=middle;resizable=0;points=[];autosize=1;strokeColor=none;fillColor=none;" parent="1" vertex="1">
          <mxGeometry x="-600" y="285" width="60" height="30" as="geometry" />
        </mxCell>
        <mxCell id="QhFBb8hKMK6KciHC4_12-46" value="Muvuca" style="text;html=1;align=left;verticalAlign=middle;resizable=0;points=[];autosize=1;strokeColor=none;fillColor=none;" parent="1" vertex="1">
          <mxGeometry x="-600" y="310" width="70" height="30" as="geometry" />
        </mxCell>
        <mxCell id="QhFBb8hKMK6KciHC4_12-47" value="Feijao de porco" style="text;html=1;align=left;verticalAlign=middle;resizable=0;points=[];autosize=1;strokeColor=none;fillColor=none;" parent="1" vertex="1">
          <mxGeometry x="-600" y="335" width="110" height="30" as="geometry" />
        </mxCell>
        <mxCell id="QhFBb8hKMK6KciHC4_12-48" value="Milho" style="text;html=1;align=left;verticalAlign=middle;resizable=0;points=[];autosize=1;strokeColor=none;fillColor=none;" parent="1" vertex="1">
          <mxGeometry x="-600" y="360" width="50" height="30" as="geometry" />
        </mxCell>
        <mxCell id="QhFBb8hKMK6KciHC4_12-49" value="Macaxeira (alto)" style="text;html=1;align=left;verticalAlign=middle;resizable=0;points=[];autosize=1;strokeColor=none;fillColor=none;" parent="1" vertex="1">
          <mxGeometry x="-600" y="385" width="110" height="30" as="geometry" />
        </mxCell>
        <mxCell id="QhFBb8hKMK6KciHC4_12-50" value="" style="ellipse;whiteSpace=wrap;html=1;strokeColor=#3700CC;fillColor=#6a00ff;fontColor=#ffffff;" parent="1" vertex="1">
          <mxGeometry x="-640" y="320" width="40" height="10" as="geometry" />
        </mxCell>
        <mxCell id="QhFBb8hKMK6KciHC4_12-51" value="" style="rhombus;whiteSpace=wrap;html=1;strokeColor=#2D7600;fillColor=#60a917;fontColor=#ffffff;" parent="1" vertex="1">
          <mxGeometry x="-625" y="345" width="10" height="10" as="geometry" />
        </mxCell>
        <mxCell id="QhFBb8hKMK6KciHC4_12-52" value="" style="endArrow=none;html=1;rounded=0;strokeWidth=4;fillColor=#e51400;strokeColor=#B20000;" parent="1" edge="1">
          <mxGeometry width="50" height="50" relative="1" as="geometry">
            <mxPoint x="-630" y="375" as="sourcePoint" />
            <mxPoint x="-610" y="375" as="targetPoint" />
          </mxGeometry>
        </mxCell>
        <mxCell id="QhFBb8hKMK6KciHC4_12-53" value="" style="endArrow=none;html=1;rounded=0;strokeWidth=5;fillColor=#ffcc99;strokeColor=#FFCC99;" parent="1" edge="1">
          <mxGeometry width="50" height="50" relative="1" as="geometry">
            <mxPoint x="-625" y="395" as="sourcePoint" />
            <mxPoint x="-615" y="405" as="targetPoint" />
          </mxGeometry>
        </mxCell>
        <mxCell id="QhFBb8hKMK6KciHC4_12-54" value="10x" style="text;html=1;align=center;verticalAlign=middle;resizable=0;points=[];autosize=1;strokeColor=none;fillColor=none;" parent="1" vertex="1">
          <mxGeometry x="-662" y="234" width="40" height="30" as="geometry" />
        </mxCell>
        <mxCell id="QhFBb8hKMK6KciHC4_12-55" value="16x" style="text;html=1;align=center;verticalAlign=middle;resizable=0;points=[];autosize=1;strokeColor=none;fillColor=none;" parent="1" vertex="1">
          <mxGeometry x="-662" y="259" width="40" height="30" as="geometry" />
        </mxCell>
        <mxCell id="QhFBb8hKMK6KciHC4_12-56" value="8x" style="text;html=1;align=center;verticalAlign=middle;resizable=0;points=[];autosize=1;strokeColor=none;fillColor=none;" parent="1" vertex="1">
          <mxGeometry x="-661" y="284" width="40" height="30" as="geometry" />
        </mxCell>
        <mxCell id="QhFBb8hKMK6KciHC4_12-57" value="34x" style="text;html=1;align=center;verticalAlign=middle;resizable=0;points=[];autosize=1;strokeColor=none;fillColor=none;" parent="1" vertex="1">
          <mxGeometry x="-660" y="334" width="40" height="30" as="geometry" />
        </mxCell>
        <mxCell id="QhFBb8hKMK6KciHC4_12-58" value="M" style="ellipse;whiteSpace=wrap;html=1;aspect=fixed;strokeColor=#666666;fillColor=#f5f5f5;gradientColor=#b3b3b3;" parent="1" vertex="1">
          <mxGeometry x="-630" y="420" width="20" height="20" as="geometry" />
        </mxCell>
        <mxCell id="QhFBb8hKMK6KciHC4_12-59" value="Mamao (emergente)" style="text;html=1;align=left;verticalAlign=middle;resizable=0;points=[];autosize=1;strokeColor=none;fillColor=none;" parent="1" vertex="1">
          <mxGeometry x="-600" y="415" width="130" height="30" as="geometry" />
        </mxCell>
        <mxCell id="QhFBb8hKMK6KciHC4_12-60" value="I" style="ellipse;whiteSpace=wrap;html=1;aspect=fixed;strokeColor=#B20000;fillColor=#e51400;fontColor=#ffffff;" parent="1" vertex="1">
          <mxGeometry x="-630" y="445" width="20" height="20" as="geometry" />
        </mxCell>
        <mxCell id="QhFBb8hKMK6KciHC4_12-61" value="Inhame" style="text;html=1;align=left;verticalAlign=middle;resizable=0;points=[];autosize=1;strokeColor=none;fillColor=none;" parent="1" vertex="1">
          <mxGeometry x="-600" y="440" width="60" height="30" as="geometry" />
        </mxCell>
        <mxCell id="QhFBb8hKMK6KciHC4_12-62" value="" style="ellipse;whiteSpace=wrap;html=1;aspect=fixed;fillColor=#000000;" parent="1" vertex="1">
          <mxGeometry x="-622.5" y="477.5" width="5" height="5" as="geometry" />
        </mxCell>
        <mxCell id="QhFBb8hKMK6KciHC4_12-63" value="Tomatinho" style="text;html=1;align=left;verticalAlign=middle;resizable=0;points=[];autosize=1;strokeColor=none;fillColor=none;" parent="1" vertex="1">
          <mxGeometry x="-600" y="465" width="80" height="30" as="geometry" />
        </mxCell>
        <mxCell id="QhFBb8hKMK6KciHC4_12-64" value="Milho (emergente)" style="text;html=1;align=left;verticalAlign=middle;resizable=0;points=[];autosize=1;strokeColor=none;fillColor=none;" parent="1" vertex="1">
          <mxGeometry x="-600" y="360" width="120" height="30" as="geometry" />
        </mxCell>
        <mxCell id="QhFBb8hKMK6KciHC4_12-65" value="" style="endArrow=none;html=1;rounded=0;strokeWidth=4;fillColor=#e51400;strokeColor=#B20000;" parent="1" edge="1">
          <mxGeometry width="50" height="50" relative="1" as="geometry">
            <mxPoint x="-630" y="375" as="sourcePoint" />
            <mxPoint x="-610" y="375" as="targetPoint" />
          </mxGeometry>
        </mxCell>
        <mxCell id="QhFBb8hKMK6KciHC4_12-66" value="" style="ellipse;whiteSpace=wrap;html=1;aspect=fixed;fillColor=#e3c800;fontColor=#000000;strokeColor=#B09500;" parent="1" vertex="1">
          <mxGeometry x="-622.5" y="502.5" width="5" height="5" as="geometry" />
        </mxCell>
        <mxCell id="QhFBb8hKMK6KciHC4_12-67" value="Berinjela" style="text;html=1;align=left;verticalAlign=middle;resizable=0;points=[];autosize=1;strokeColor=none;fillColor=none;" parent="1" vertex="1">
          <mxGeometry x="-600" y="490" width="70" height="30" as="geometry" />
        </mxCell>
        <mxCell id="QhFBb8hKMK6KciHC4_12-68" value="6x" style="text;html=1;align=center;verticalAlign=middle;resizable=0;points=[];autosize=1;strokeColor=none;fillColor=none;" parent="1" vertex="1">
          <mxGeometry x="-662" y="415" width="40" height="30" as="geometry" />
        </mxCell>
        <mxCell id="QhFBb8hKMK6KciHC4_12-69" value="16x" style="text;html=1;align=center;verticalAlign=middle;resizable=0;points=[];autosize=1;strokeColor=none;fillColor=none;" parent="1" vertex="1">
          <mxGeometry x="-670" y="308.93" width="40" height="30" as="geometry" />
        </mxCell>
        <mxCell id="QhFBb8hKMK6KciHC4_12-70" value="A" style="ellipse;whiteSpace=wrap;html=1;aspect=fixed;strokeColor=#B20000;fillColor=#000000;fontColor=#ffffff;" parent="1" vertex="1">
          <mxGeometry x="-630" y="515" width="20" height="20" as="geometry" />
        </mxCell>
        <mxCell id="QhFBb8hKMK6KciHC4_12-71" value="Abacaxi (baixo)" style="text;html=1;align=left;verticalAlign=middle;resizable=0;points=[];autosize=1;strokeColor=none;fillColor=none;" parent="1" vertex="1">
          <mxGeometry x="-600" y="510" width="110" height="30" as="geometry" />
        </mxCell>
        <mxCell id="QhFBb8hKMK6KciHC4_12-72" value="G" style="ellipse;whiteSpace=wrap;html=1;aspect=fixed;strokeColor=#36393d;fillColor=#ffff88;" parent="1" vertex="1">
          <mxGeometry x="-630" y="540" width="20" height="20" as="geometry" />
        </mxCell>
        <mxCell id="QhFBb8hKMK6KciHC4_12-73" value="Gliricidia (alto)" style="text;html=1;align=left;verticalAlign=middle;resizable=0;points=[];autosize=1;strokeColor=none;fillColor=none;" parent="1" vertex="1">
          <mxGeometry x="-600" y="535" width="100" height="30" as="geometry" />
        </mxCell>
        <mxCell id="QhFBb8hKMK6KciHC4_12-137" value="" style="rounded=0;whiteSpace=wrap;html=1;dashed=1;dashPattern=1 1;" parent="1" vertex="1">
          <mxGeometry x="120" y="400" width="1200" height="40" as="geometry" />
        </mxCell>
        <mxCell id="QhFBb8hKMK6KciHC4_12-185" value="" style="rounded=0;whiteSpace=wrap;html=1;dashed=1;dashPattern=1 1;" parent="1" vertex="1">
          <mxGeometry x="120" y="600" width="1200" height="40" as="geometry" />
        </mxCell>
        <mxCell id="QhFBb8hKMK6KciHC4_12-201" value="" style="rounded=0;whiteSpace=wrap;html=1;dashed=1;dashPattern=1 1;" parent="1" vertex="1">
          <mxGeometry x="120" y="800" width="1200" height="40" as="geometry" />
        </mxCell>
        <mxCell id="QhFBb8hKMK6KciHC4_12-217" value="" style="rounded=0;whiteSpace=wrap;html=1;dashed=1;dashPattern=1 1;" parent="1" vertex="1">
          <mxGeometry x="120" y="1000" width="1200" height="40" as="geometry" />
        </mxCell>
        <mxCell id="QhFBb8hKMK6KciHC4_12-233" value="" style="rounded=0;whiteSpace=wrap;html=1;dashed=1;dashPattern=1 1;" parent="1" vertex="1">
          <mxGeometry x="120" y="1200" width="1200" height="40" as="geometry" />
        </mxCell>
        <mxCell id="Pxgu1QlIMK_49DVXGXGE-8" value="Muvucas" parent="0" />
        <mxCell id="Pxgu1QlIMK_49DVXGXGE-9" value="" style="ellipse;whiteSpace=wrap;html=1;strokeColor=#3700CC;fillColor=#6a00ff;fontColor=#ffffff;" vertex="1" parent="Pxgu1QlIMK_49DVXGXGE-8">
          <mxGeometry x="140" y="216" width="40" height="10" as="geometry" />
        </mxCell>
        <mxCell id="Pxgu1QlIMK_49DVXGXGE-10" value="" style="ellipse;whiteSpace=wrap;html=1;strokeColor=#3700CC;fillColor=#6a00ff;fontColor=#ffffff;" vertex="1" parent="Pxgu1QlIMK_49DVXGXGE-8">
          <mxGeometry x="220" y="216" width="40" height="10" as="geometry" />
        </mxCell>
        <mxCell id="Pxgu1QlIMK_49DVXGXGE-11" value="" style="ellipse;whiteSpace=wrap;html=1;strokeColor=#3700CC;fillColor=#6a00ff;fontColor=#ffffff;" vertex="1" parent="Pxgu1QlIMK_49DVXGXGE-8">
          <mxGeometry x="300" y="216" width="40" height="10" as="geometry" />
        </mxCell>
        <mxCell id="Pxgu1QlIMK_49DVXGXGE-12" value="" style="ellipse;whiteSpace=wrap;html=1;strokeColor=#3700CC;fillColor=#6a00ff;fontColor=#ffffff;" vertex="1" parent="Pxgu1QlIMK_49DVXGXGE-8">
          <mxGeometry x="380" y="216" width="40" height="10" as="geometry" />
        </mxCell>
        <mxCell id="Pxgu1QlIMK_49DVXGXGE-13" value="" style="ellipse;whiteSpace=wrap;html=1;strokeColor=#3700CC;fillColor=#6a00ff;fontColor=#ffffff;" vertex="1" parent="Pxgu1QlIMK_49DVXGXGE-8">
          <mxGeometry x="460" y="216" width="40" height="10" as="geometry" />
        </mxCell>
        <mxCell id="QhFBb8hKMK6KciHC4_12-250" value="Eucaliptos" parent="0" />
        <mxCell id="QhFBb8hKMK6KciHC4_12-251" value="E" style="ellipse;whiteSpace=wrap;html=1;aspect=fixed;strokeColor=#005700;fillColor=#008a00;fontColor=#ffffff;" parent="QhFBb8hKMK6KciHC4_12-250" vertex="1">
          <mxGeometry x="150" y="210" width="20" height="20" as="geometry" />
        </mxCell>
        <mxCell id="QhFBb8hKMK6KciHC4_12-252" value="E" style="ellipse;whiteSpace=wrap;html=1;aspect=fixed;strokeColor=#005700;fillColor=#008a00;fontColor=#ffffff;" parent="QhFBb8hKMK6KciHC4_12-250" vertex="1">
          <mxGeometry x="230" y="210" width="20" height="20" as="geometry" />
        </mxCell>
        <mxCell id="QhFBb8hKMK6KciHC4_12-253" value="E" style="ellipse;whiteSpace=wrap;html=1;aspect=fixed;strokeColor=#005700;fillColor=#008a00;fontColor=#ffffff;" parent="QhFBb8hKMK6KciHC4_12-250" vertex="1">
          <mxGeometry x="310" y="210" width="20" height="20" as="geometry" />
        </mxCell>
        <mxCell id="QhFBb8hKMK6KciHC4_12-254" value="E" style="ellipse;whiteSpace=wrap;html=1;aspect=fixed;strokeColor=#005700;fillColor=#008a00;fontColor=#ffffff;" parent="QhFBb8hKMK6KciHC4_12-250" vertex="1">
          <mxGeometry x="390" y="210" width="20" height="20" as="geometry" />
        </mxCell>
        <mxCell id="QhFBb8hKMK6KciHC4_12-255" value="E" style="ellipse;whiteSpace=wrap;html=1;aspect=fixed;strokeColor=#005700;fillColor=#008a00;fontColor=#ffffff;" parent="QhFBb8hKMK6KciHC4_12-250" vertex="1">
          <mxGeometry x="470" y="210" width="20" height="20" as="geometry" />
        </mxCell>
        <mxCell id="QhFBb8hKMK6KciHC4_12-256" value="E" style="ellipse;whiteSpace=wrap;html=1;aspect=fixed;strokeColor=#005700;fillColor=#008a00;fontColor=#ffffff;" parent="QhFBb8hKMK6KciHC4_12-250" vertex="1">
          <mxGeometry x="550" y="210" width="20" height="20" as="geometry" />
        </mxCell>
        <mxCell id="QhFBb8hKMK6KciHC4_12-257" value="E" style="ellipse;whiteSpace=wrap;html=1;aspect=fixed;strokeColor=#005700;fillColor=#008a00;fontColor=#ffffff;" parent="QhFBb8hKMK6KciHC4_12-250" vertex="1">
          <mxGeometry x="630" y="210" width="20" height="20" as="geometry" />
        </mxCell>
        <mxCell id="QhFBb8hKMK6KciHC4_12-258" value="E" style="ellipse;whiteSpace=wrap;html=1;aspect=fixed;strokeColor=#005700;fillColor=#008a00;fontColor=#ffffff;" parent="QhFBb8hKMK6KciHC4_12-250" vertex="1">
          <mxGeometry x="710" y="210" width="20" height="20" as="geometry" />
        </mxCell>
        <mxCell id="QhFBb8hKMK6KciHC4_12-259" value="E" style="ellipse;whiteSpace=wrap;html=1;aspect=fixed;strokeColor=#005700;fillColor=#008a00;fontColor=#ffffff;" parent="QhFBb8hKMK6KciHC4_12-250" vertex="1">
          <mxGeometry x="790" y="210" width="20" height="20" as="geometry" />
        </mxCell>
        <mxCell id="QhFBb8hKMK6KciHC4_12-260" value="E" style="ellipse;whiteSpace=wrap;html=1;aspect=fixed;strokeColor=#005700;fillColor=#008a00;fontColor=#ffffff;" parent="QhFBb8hKMK6KciHC4_12-250" vertex="1">
          <mxGeometry x="870" y="210" width="20" height="20" as="geometry" />
        </mxCell>
        <mxCell id="QhFBb8hKMK6KciHC4_12-261" value="E" style="ellipse;whiteSpace=wrap;html=1;aspect=fixed;strokeColor=#005700;fillColor=#008a00;fontColor=#ffffff;" parent="QhFBb8hKMK6KciHC4_12-250" vertex="1">
          <mxGeometry x="950" y="210" width="20" height="20" as="geometry" />
        </mxCell>
        <mxCell id="QhFBb8hKMK6KciHC4_12-262" value="E" style="ellipse;whiteSpace=wrap;html=1;aspect=fixed;strokeColor=#005700;fillColor=#008a00;fontColor=#ffffff;" parent="QhFBb8hKMK6KciHC4_12-250" vertex="1">
          <mxGeometry x="1030" y="210" width="20" height="20" as="geometry" />
        </mxCell>
        <mxCell id="QhFBb8hKMK6KciHC4_12-263" value="E" style="ellipse;whiteSpace=wrap;html=1;aspect=fixed;strokeColor=#005700;fillColor=#008a00;fontColor=#ffffff;" parent="QhFBb8hKMK6KciHC4_12-250" vertex="1">
          <mxGeometry x="1110" y="210" width="20" height="20" as="geometry" />
        </mxCell>
        <mxCell id="QhFBb8hKMK6KciHC4_12-264" value="E" style="ellipse;whiteSpace=wrap;html=1;aspect=fixed;strokeColor=#005700;fillColor=#008a00;fontColor=#ffffff;" parent="QhFBb8hKMK6KciHC4_12-250" vertex="1">
          <mxGeometry x="1190" y="210" width="20" height="20" as="geometry" />
        </mxCell>
        <mxCell id="QhFBb8hKMK6KciHC4_12-265" value="E" style="ellipse;whiteSpace=wrap;html=1;aspect=fixed;strokeColor=#005700;fillColor=#008a00;fontColor=#ffffff;" parent="QhFBb8hKMK6KciHC4_12-250" vertex="1">
          <mxGeometry x="1270" y="210" width="20" height="20" as="geometry" />
        </mxCell>
        <mxCell id="QhFBb8hKMK6KciHC4_12-266" value="E" style="ellipse;whiteSpace=wrap;html=1;aspect=fixed;strokeColor=#005700;fillColor=#008a00;fontColor=#ffffff;" parent="QhFBb8hKMK6KciHC4_12-250" vertex="1">
          <mxGeometry x="150" y="410" width="20" height="20" as="geometry" />
        </mxCell>
        <mxCell id="QhFBb8hKMK6KciHC4_12-267" value="E" style="ellipse;whiteSpace=wrap;html=1;aspect=fixed;strokeColor=#005700;fillColor=#008a00;fontColor=#ffffff;" parent="QhFBb8hKMK6KciHC4_12-250" vertex="1">
          <mxGeometry x="230" y="410" width="20" height="20" as="geometry" />
        </mxCell>
        <mxCell id="QhFBb8hKMK6KciHC4_12-268" value="E" style="ellipse;whiteSpace=wrap;html=1;aspect=fixed;strokeColor=#005700;fillColor=#008a00;fontColor=#ffffff;" parent="QhFBb8hKMK6KciHC4_12-250" vertex="1">
          <mxGeometry x="310" y="410" width="20" height="20" as="geometry" />
        </mxCell>
        <mxCell id="QhFBb8hKMK6KciHC4_12-269" value="E" style="ellipse;whiteSpace=wrap;html=1;aspect=fixed;strokeColor=#005700;fillColor=#008a00;fontColor=#ffffff;" parent="QhFBb8hKMK6KciHC4_12-250" vertex="1">
          <mxGeometry x="390" y="410" width="20" height="20" as="geometry" />
        </mxCell>
        <mxCell id="QhFBb8hKMK6KciHC4_12-270" value="E" style="ellipse;whiteSpace=wrap;html=1;aspect=fixed;strokeColor=#005700;fillColor=#008a00;fontColor=#ffffff;" parent="QhFBb8hKMK6KciHC4_12-250" vertex="1">
          <mxGeometry x="470" y="410" width="20" height="20" as="geometry" />
        </mxCell>
        <mxCell id="QhFBb8hKMK6KciHC4_12-271" value="E" style="ellipse;whiteSpace=wrap;html=1;aspect=fixed;strokeColor=#005700;fillColor=#008a00;fontColor=#ffffff;" parent="QhFBb8hKMK6KciHC4_12-250" vertex="1">
          <mxGeometry x="550" y="410" width="20" height="20" as="geometry" />
        </mxCell>
        <mxCell id="QhFBb8hKMK6KciHC4_12-272" value="E" style="ellipse;whiteSpace=wrap;html=1;aspect=fixed;strokeColor=#005700;fillColor=#008a00;fontColor=#ffffff;" parent="QhFBb8hKMK6KciHC4_12-250" vertex="1">
          <mxGeometry x="630" y="410" width="20" height="20" as="geometry" />
        </mxCell>
        <mxCell id="QhFBb8hKMK6KciHC4_12-273" value="E" style="ellipse;whiteSpace=wrap;html=1;aspect=fixed;strokeColor=#005700;fillColor=#008a00;fontColor=#ffffff;" parent="QhFBb8hKMK6KciHC4_12-250" vertex="1">
          <mxGeometry x="710" y="410" width="20" height="20" as="geometry" />
        </mxCell>
        <mxCell id="QhFBb8hKMK6KciHC4_12-274" value="E" style="ellipse;whiteSpace=wrap;html=1;aspect=fixed;strokeColor=#005700;fillColor=#008a00;fontColor=#ffffff;" parent="QhFBb8hKMK6KciHC4_12-250" vertex="1">
          <mxGeometry x="790" y="410" width="20" height="20" as="geometry" />
        </mxCell>
        <mxCell id="QhFBb8hKMK6KciHC4_12-275" value="E" style="ellipse;whiteSpace=wrap;html=1;aspect=fixed;strokeColor=#005700;fillColor=#008a00;fontColor=#ffffff;" parent="QhFBb8hKMK6KciHC4_12-250" vertex="1">
          <mxGeometry x="870" y="410" width="20" height="20" as="geometry" />
        </mxCell>
        <mxCell id="QhFBb8hKMK6KciHC4_12-276" value="E" style="ellipse;whiteSpace=wrap;html=1;aspect=fixed;strokeColor=#005700;fillColor=#008a00;fontColor=#ffffff;" parent="QhFBb8hKMK6KciHC4_12-250" vertex="1">
          <mxGeometry x="950" y="410" width="20" height="20" as="geometry" />
        </mxCell>
        <mxCell id="QhFBb8hKMK6KciHC4_12-277" value="E" style="ellipse;whiteSpace=wrap;html=1;aspect=fixed;strokeColor=#005700;fillColor=#008a00;fontColor=#ffffff;" parent="QhFBb8hKMK6KciHC4_12-250" vertex="1">
          <mxGeometry x="1030" y="410" width="20" height="20" as="geometry" />
        </mxCell>
        <mxCell id="QhFBb8hKMK6KciHC4_12-278" value="E" style="ellipse;whiteSpace=wrap;html=1;aspect=fixed;strokeColor=#005700;fillColor=#008a00;fontColor=#ffffff;" parent="QhFBb8hKMK6KciHC4_12-250" vertex="1">
          <mxGeometry x="1110" y="410" width="20" height="20" as="geometry" />
        </mxCell>
        <mxCell id="QhFBb8hKMK6KciHC4_12-279" value="E" style="ellipse;whiteSpace=wrap;html=1;aspect=fixed;strokeColor=#005700;fillColor=#008a00;fontColor=#ffffff;" parent="QhFBb8hKMK6KciHC4_12-250" vertex="1">
          <mxGeometry x="1190" y="410" width="20" height="20" as="geometry" />
        </mxCell>
        <mxCell id="QhFBb8hKMK6KciHC4_12-280" value="E" style="ellipse;whiteSpace=wrap;html=1;aspect=fixed;strokeColor=#005700;fillColor=#008a00;fontColor=#ffffff;" parent="QhFBb8hKMK6KciHC4_12-250" vertex="1">
          <mxGeometry x="1270" y="410" width="20" height="20" as="geometry" />
        </mxCell>
        <mxCell id="QhFBb8hKMK6KciHC4_12-281" value="E" style="ellipse;whiteSpace=wrap;html=1;aspect=fixed;strokeColor=#005700;fillColor=#008a00;fontColor=#ffffff;" parent="QhFBb8hKMK6KciHC4_12-250" vertex="1">
          <mxGeometry x="150" y="610" width="20" height="20" as="geometry" />
        </mxCell>
        <mxCell id="QhFBb8hKMK6KciHC4_12-282" value="E" style="ellipse;whiteSpace=wrap;html=1;aspect=fixed;strokeColor=#005700;fillColor=#008a00;fontColor=#ffffff;" parent="QhFBb8hKMK6KciHC4_12-250" vertex="1">
          <mxGeometry x="230" y="610" width="20" height="20" as="geometry" />
        </mxCell>
        <mxCell id="QhFBb8hKMK6KciHC4_12-283" value="E" style="ellipse;whiteSpace=wrap;html=1;aspect=fixed;strokeColor=#005700;fillColor=#008a00;fontColor=#ffffff;" parent="QhFBb8hKMK6KciHC4_12-250" vertex="1">
          <mxGeometry x="310" y="610" width="20" height="20" as="geometry" />
        </mxCell>
        <mxCell id="QhFBb8hKMK6KciHC4_12-284" value="E" style="ellipse;whiteSpace=wrap;html=1;aspect=fixed;strokeColor=#005700;fillColor=#008a00;fontColor=#ffffff;" parent="QhFBb8hKMK6KciHC4_12-250" vertex="1">
          <mxGeometry x="390" y="610" width="20" height="20" as="geometry" />
        </mxCell>
        <mxCell id="QhFBb8hKMK6KciHC4_12-285" value="E" style="ellipse;whiteSpace=wrap;html=1;aspect=fixed;strokeColor=#005700;fillColor=#008a00;fontColor=#ffffff;" parent="QhFBb8hKMK6KciHC4_12-250" vertex="1">
          <mxGeometry x="470" y="610" width="20" height="20" as="geometry" />
        </mxCell>
        <mxCell id="QhFBb8hKMK6KciHC4_12-286" value="E" style="ellipse;whiteSpace=wrap;html=1;aspect=fixed;strokeColor=#005700;fillColor=#008a00;fontColor=#ffffff;" parent="QhFBb8hKMK6KciHC4_12-250" vertex="1">
          <mxGeometry x="550" y="610" width="20" height="20" as="geometry" />
        </mxCell>
        <mxCell id="QhFBb8hKMK6KciHC4_12-287" value="E" style="ellipse;whiteSpace=wrap;html=1;aspect=fixed;strokeColor=#005700;fillColor=#008a00;fontColor=#ffffff;" parent="QhFBb8hKMK6KciHC4_12-250" vertex="1">
          <mxGeometry x="630" y="610" width="20" height="20" as="geometry" />
        </mxCell>
        <mxCell id="QhFBb8hKMK6KciHC4_12-288" value="E" style="ellipse;whiteSpace=wrap;html=1;aspect=fixed;strokeColor=#005700;fillColor=#008a00;fontColor=#ffffff;" parent="QhFBb8hKMK6KciHC4_12-250" vertex="1">
          <mxGeometry x="710" y="610" width="20" height="20" as="geometry" />
        </mxCell>
        <mxCell id="QhFBb8hKMK6KciHC4_12-289" value="E" style="ellipse;whiteSpace=wrap;html=1;aspect=fixed;strokeColor=#005700;fillColor=#008a00;fontColor=#ffffff;" parent="QhFBb8hKMK6KciHC4_12-250" vertex="1">
          <mxGeometry x="790" y="610" width="20" height="20" as="geometry" />
        </mxCell>
        <mxCell id="QhFBb8hKMK6KciHC4_12-290" value="E" style="ellipse;whiteSpace=wrap;html=1;aspect=fixed;strokeColor=#005700;fillColor=#008a00;fontColor=#ffffff;" parent="QhFBb8hKMK6KciHC4_12-250" vertex="1">
          <mxGeometry x="870" y="610" width="20" height="20" as="geometry" />
        </mxCell>
        <mxCell id="QhFBb8hKMK6KciHC4_12-291" value="E" style="ellipse;whiteSpace=wrap;html=1;aspect=fixed;strokeColor=#005700;fillColor=#008a00;fontColor=#ffffff;" parent="QhFBb8hKMK6KciHC4_12-250" vertex="1">
          <mxGeometry x="950" y="610" width="20" height="20" as="geometry" />
        </mxCell>
        <mxCell id="QhFBb8hKMK6KciHC4_12-292" value="E" style="ellipse;whiteSpace=wrap;html=1;aspect=fixed;strokeColor=#005700;fillColor=#008a00;fontColor=#ffffff;" parent="QhFBb8hKMK6KciHC4_12-250" vertex="1">
          <mxGeometry x="1030" y="610" width="20" height="20" as="geometry" />
        </mxCell>
        <mxCell id="QhFBb8hKMK6KciHC4_12-293" value="E" style="ellipse;whiteSpace=wrap;html=1;aspect=fixed;strokeColor=#005700;fillColor=#008a00;fontColor=#ffffff;" parent="QhFBb8hKMK6KciHC4_12-250" vertex="1">
          <mxGeometry x="1110" y="610" width="20" height="20" as="geometry" />
        </mxCell>
        <mxCell id="QhFBb8hKMK6KciHC4_12-294" value="E" style="ellipse;whiteSpace=wrap;html=1;aspect=fixed;strokeColor=#005700;fillColor=#008a00;fontColor=#ffffff;" parent="QhFBb8hKMK6KciHC4_12-250" vertex="1">
          <mxGeometry x="1190" y="610" width="20" height="20" as="geometry" />
        </mxCell>
        <mxCell id="QhFBb8hKMK6KciHC4_12-295" value="E" style="ellipse;whiteSpace=wrap;html=1;aspect=fixed;strokeColor=#005700;fillColor=#008a00;fontColor=#ffffff;" parent="QhFBb8hKMK6KciHC4_12-250" vertex="1">
          <mxGeometry x="1270" y="610" width="20" height="20" as="geometry" />
        </mxCell>
        <mxCell id="QhFBb8hKMK6KciHC4_12-296" value="E" style="ellipse;whiteSpace=wrap;html=1;aspect=fixed;strokeColor=#005700;fillColor=#008a00;fontColor=#ffffff;" parent="QhFBb8hKMK6KciHC4_12-250" vertex="1">
          <mxGeometry x="150" y="810" width="20" height="20" as="geometry" />
        </mxCell>
        <mxCell id="QhFBb8hKMK6KciHC4_12-297" value="E" style="ellipse;whiteSpace=wrap;html=1;aspect=fixed;strokeColor=#005700;fillColor=#008a00;fontColor=#ffffff;" parent="QhFBb8hKMK6KciHC4_12-250" vertex="1">
          <mxGeometry x="230" y="810" width="20" height="20" as="geometry" />
        </mxCell>
        <mxCell id="QhFBb8hKMK6KciHC4_12-298" value="E" style="ellipse;whiteSpace=wrap;html=1;aspect=fixed;strokeColor=#005700;fillColor=#008a00;fontColor=#ffffff;" parent="QhFBb8hKMK6KciHC4_12-250" vertex="1">
          <mxGeometry x="310" y="810" width="20" height="20" as="geometry" />
        </mxCell>
        <mxCell id="QhFBb8hKMK6KciHC4_12-299" value="E" style="ellipse;whiteSpace=wrap;html=1;aspect=fixed;strokeColor=#005700;fillColor=#008a00;fontColor=#ffffff;" parent="QhFBb8hKMK6KciHC4_12-250" vertex="1">
          <mxGeometry x="390" y="810" width="20" height="20" as="geometry" />
        </mxCell>
        <mxCell id="QhFBb8hKMK6KciHC4_12-300" value="E" style="ellipse;whiteSpace=wrap;html=1;aspect=fixed;strokeColor=#005700;fillColor=#008a00;fontColor=#ffffff;" parent="QhFBb8hKMK6KciHC4_12-250" vertex="1">
          <mxGeometry x="470" y="810" width="20" height="20" as="geometry" />
        </mxCell>
        <mxCell id="QhFBb8hKMK6KciHC4_12-301" value="E" style="ellipse;whiteSpace=wrap;html=1;aspect=fixed;strokeColor=#005700;fillColor=#008a00;fontColor=#ffffff;" parent="QhFBb8hKMK6KciHC4_12-250" vertex="1">
          <mxGeometry x="550" y="810" width="20" height="20" as="geometry" />
        </mxCell>
        <mxCell id="QhFBb8hKMK6KciHC4_12-302" value="E" style="ellipse;whiteSpace=wrap;html=1;aspect=fixed;strokeColor=#005700;fillColor=#008a00;fontColor=#ffffff;" parent="QhFBb8hKMK6KciHC4_12-250" vertex="1">
          <mxGeometry x="630" y="810" width="20" height="20" as="geometry" />
        </mxCell>
        <mxCell id="QhFBb8hKMK6KciHC4_12-303" value="E" style="ellipse;whiteSpace=wrap;html=1;aspect=fixed;strokeColor=#005700;fillColor=#008a00;fontColor=#ffffff;" parent="QhFBb8hKMK6KciHC4_12-250" vertex="1">
          <mxGeometry x="710" y="810" width="20" height="20" as="geometry" />
        </mxCell>
        <mxCell id="QhFBb8hKMK6KciHC4_12-304" value="E" style="ellipse;whiteSpace=wrap;html=1;aspect=fixed;strokeColor=#005700;fillColor=#008a00;fontColor=#ffffff;" parent="QhFBb8hKMK6KciHC4_12-250" vertex="1">
          <mxGeometry x="790" y="810" width="20" height="20" as="geometry" />
        </mxCell>
        <mxCell id="QhFBb8hKMK6KciHC4_12-305" value="E" style="ellipse;whiteSpace=wrap;html=1;aspect=fixed;strokeColor=#005700;fillColor=#008a00;fontColor=#ffffff;" parent="QhFBb8hKMK6KciHC4_12-250" vertex="1">
          <mxGeometry x="870" y="810" width="20" height="20" as="geometry" />
        </mxCell>
        <mxCell id="QhFBb8hKMK6KciHC4_12-306" value="E" style="ellipse;whiteSpace=wrap;html=1;aspect=fixed;strokeColor=#005700;fillColor=#008a00;fontColor=#ffffff;" parent="QhFBb8hKMK6KciHC4_12-250" vertex="1">
          <mxGeometry x="950" y="810" width="20" height="20" as="geometry" />
        </mxCell>
        <mxCell id="QhFBb8hKMK6KciHC4_12-307" value="E" style="ellipse;whiteSpace=wrap;html=1;aspect=fixed;strokeColor=#005700;fillColor=#008a00;fontColor=#ffffff;" parent="QhFBb8hKMK6KciHC4_12-250" vertex="1">
          <mxGeometry x="1030" y="810" width="20" height="20" as="geometry" />
        </mxCell>
        <mxCell id="QhFBb8hKMK6KciHC4_12-308" value="E" style="ellipse;whiteSpace=wrap;html=1;aspect=fixed;strokeColor=#005700;fillColor=#008a00;fontColor=#ffffff;" parent="QhFBb8hKMK6KciHC4_12-250" vertex="1">
          <mxGeometry x="1110" y="810" width="20" height="20" as="geometry" />
        </mxCell>
        <mxCell id="QhFBb8hKMK6KciHC4_12-309" value="E" style="ellipse;whiteSpace=wrap;html=1;aspect=fixed;strokeColor=#005700;fillColor=#008a00;fontColor=#ffffff;" parent="QhFBb8hKMK6KciHC4_12-250" vertex="1">
          <mxGeometry x="1190" y="810" width="20" height="20" as="geometry" />
        </mxCell>
        <mxCell id="QhFBb8hKMK6KciHC4_12-310" value="E" style="ellipse;whiteSpace=wrap;html=1;aspect=fixed;strokeColor=#005700;fillColor=#008a00;fontColor=#ffffff;" parent="QhFBb8hKMK6KciHC4_12-250" vertex="1">
          <mxGeometry x="1270" y="810" width="20" height="20" as="geometry" />
        </mxCell>
        <mxCell id="QhFBb8hKMK6KciHC4_12-311" value="E" style="ellipse;whiteSpace=wrap;html=1;aspect=fixed;strokeColor=#005700;fillColor=#008a00;fontColor=#ffffff;" parent="QhFBb8hKMK6KciHC4_12-250" vertex="1">
          <mxGeometry x="150" y="1010" width="20" height="20" as="geometry" />
        </mxCell>
        <mxCell id="QhFBb8hKMK6KciHC4_12-312" value="E" style="ellipse;whiteSpace=wrap;html=1;aspect=fixed;strokeColor=#005700;fillColor=#008a00;fontColor=#ffffff;" parent="QhFBb8hKMK6KciHC4_12-250" vertex="1">
          <mxGeometry x="230" y="1010" width="20" height="20" as="geometry" />
        </mxCell>
        <mxCell id="QhFBb8hKMK6KciHC4_12-313" value="E" style="ellipse;whiteSpace=wrap;html=1;aspect=fixed;strokeColor=#005700;fillColor=#008a00;fontColor=#ffffff;" parent="QhFBb8hKMK6KciHC4_12-250" vertex="1">
          <mxGeometry x="310" y="1010" width="20" height="20" as="geometry" />
        </mxCell>
        <mxCell id="QhFBb8hKMK6KciHC4_12-314" value="E" style="ellipse;whiteSpace=wrap;html=1;aspect=fixed;strokeColor=#005700;fillColor=#008a00;fontColor=#ffffff;" parent="QhFBb8hKMK6KciHC4_12-250" vertex="1">
          <mxGeometry x="390" y="1010" width="20" height="20" as="geometry" />
        </mxCell>
        <mxCell id="QhFBb8hKMK6KciHC4_12-315" value="E" style="ellipse;whiteSpace=wrap;html=1;aspect=fixed;strokeColor=#005700;fillColor=#008a00;fontColor=#ffffff;" parent="QhFBb8hKMK6KciHC4_12-250" vertex="1">
          <mxGeometry x="470" y="1010" width="20" height="20" as="geometry" />
        </mxCell>
        <mxCell id="QhFBb8hKMK6KciHC4_12-316" value="E" style="ellipse;whiteSpace=wrap;html=1;aspect=fixed;strokeColor=#005700;fillColor=#008a00;fontColor=#ffffff;" parent="QhFBb8hKMK6KciHC4_12-250" vertex="1">
          <mxGeometry x="550" y="1010" width="20" height="20" as="geometry" />
        </mxCell>
        <mxCell id="QhFBb8hKMK6KciHC4_12-317" value="E" style="ellipse;whiteSpace=wrap;html=1;aspect=fixed;strokeColor=#005700;fillColor=#008a00;fontColor=#ffffff;" parent="QhFBb8hKMK6KciHC4_12-250" vertex="1">
          <mxGeometry x="630" y="1010" width="20" height="20" as="geometry" />
        </mxCell>
        <mxCell id="QhFBb8hKMK6KciHC4_12-318" value="E" style="ellipse;whiteSpace=wrap;html=1;aspect=fixed;strokeColor=#005700;fillColor=#008a00;fontColor=#ffffff;" parent="QhFBb8hKMK6KciHC4_12-250" vertex="1">
          <mxGeometry x="710" y="1010" width="20" height="20" as="geometry" />
        </mxCell>
        <mxCell id="QhFBb8hKMK6KciHC4_12-319" value="E" style="ellipse;whiteSpace=wrap;html=1;aspect=fixed;strokeColor=#005700;fillColor=#008a00;fontColor=#ffffff;" parent="QhFBb8hKMK6KciHC4_12-250" vertex="1">
          <mxGeometry x="790" y="1010" width="20" height="20" as="geometry" />
        </mxCell>
        <mxCell id="QhFBb8hKMK6KciHC4_12-320" value="E" style="ellipse;whiteSpace=wrap;html=1;aspect=fixed;strokeColor=#005700;fillColor=#008a00;fontColor=#ffffff;" parent="QhFBb8hKMK6KciHC4_12-250" vertex="1">
          <mxGeometry x="870" y="1010" width="20" height="20" as="geometry" />
        </mxCell>
        <mxCell id="QhFBb8hKMK6KciHC4_12-321" value="E" style="ellipse;whiteSpace=wrap;html=1;aspect=fixed;strokeColor=#005700;fillColor=#008a00;fontColor=#ffffff;" parent="QhFBb8hKMK6KciHC4_12-250" vertex="1">
          <mxGeometry x="950" y="1010" width="20" height="20" as="geometry" />
        </mxCell>
        <mxCell id="QhFBb8hKMK6KciHC4_12-322" value="E" style="ellipse;whiteSpace=wrap;html=1;aspect=fixed;strokeColor=#005700;fillColor=#008a00;fontColor=#ffffff;" parent="QhFBb8hKMK6KciHC4_12-250" vertex="1">
          <mxGeometry x="1030" y="1010" width="20" height="20" as="geometry" />
        </mxCell>
        <mxCell id="QhFBb8hKMK6KciHC4_12-323" value="E" style="ellipse;whiteSpace=wrap;html=1;aspect=fixed;strokeColor=#005700;fillColor=#008a00;fontColor=#ffffff;" parent="QhFBb8hKMK6KciHC4_12-250" vertex="1">
          <mxGeometry x="1110" y="1010" width="20" height="20" as="geometry" />
        </mxCell>
        <mxCell id="QhFBb8hKMK6KciHC4_12-324" value="E" style="ellipse;whiteSpace=wrap;html=1;aspect=fixed;strokeColor=#005700;fillColor=#008a00;fontColor=#ffffff;" parent="QhFBb8hKMK6KciHC4_12-250" vertex="1">
          <mxGeometry x="1190" y="1010" width="20" height="20" as="geometry" />
        </mxCell>
        <mxCell id="QhFBb8hKMK6KciHC4_12-325" value="E" style="ellipse;whiteSpace=wrap;html=1;aspect=fixed;strokeColor=#005700;fillColor=#008a00;fontColor=#ffffff;" parent="QhFBb8hKMK6KciHC4_12-250" vertex="1">
          <mxGeometry x="1270" y="1010" width="20" height="20" as="geometry" />
        </mxCell>
        <mxCell id="QhFBb8hKMK6KciHC4_12-326" value="E" style="ellipse;whiteSpace=wrap;html=1;aspect=fixed;strokeColor=#005700;fillColor=#008a00;fontColor=#ffffff;" parent="QhFBb8hKMK6KciHC4_12-250" vertex="1">
          <mxGeometry x="150" y="1210" width="20" height="20" as="geometry" />
        </mxCell>
        <mxCell id="QhFBb8hKMK6KciHC4_12-327" value="E" style="ellipse;whiteSpace=wrap;html=1;aspect=fixed;strokeColor=#005700;fillColor=#008a00;fontColor=#ffffff;" parent="QhFBb8hKMK6KciHC4_12-250" vertex="1">
          <mxGeometry x="230" y="1210" width="20" height="20" as="geometry" />
        </mxCell>
        <mxCell id="QhFBb8hKMK6KciHC4_12-328" value="E" style="ellipse;whiteSpace=wrap;html=1;aspect=fixed;strokeColor=#005700;fillColor=#008a00;fontColor=#ffffff;" parent="QhFBb8hKMK6KciHC4_12-250" vertex="1">
          <mxGeometry x="310" y="1210" width="20" height="20" as="geometry" />
        </mxCell>
        <mxCell id="QhFBb8hKMK6KciHC4_12-329" value="E" style="ellipse;whiteSpace=wrap;html=1;aspect=fixed;strokeColor=#005700;fillColor=#008a00;fontColor=#ffffff;" parent="QhFBb8hKMK6KciHC4_12-250" vertex="1">
          <mxGeometry x="390" y="1210" width="20" height="20" as="geometry" />
        </mxCell>
        <mxCell id="QhFBb8hKMK6KciHC4_12-330" value="E" style="ellipse;whiteSpace=wrap;html=1;aspect=fixed;strokeColor=#005700;fillColor=#008a00;fontColor=#ffffff;" parent="QhFBb8hKMK6KciHC4_12-250" vertex="1">
          <mxGeometry x="470" y="1210" width="20" height="20" as="geometry" />
        </mxCell>
        <mxCell id="QhFBb8hKMK6KciHC4_12-331" value="E" style="ellipse;whiteSpace=wrap;html=1;aspect=fixed;strokeColor=#005700;fillColor=#008a00;fontColor=#ffffff;" parent="QhFBb8hKMK6KciHC4_12-250" vertex="1">
          <mxGeometry x="550" y="1210" width="20" height="20" as="geometry" />
        </mxCell>
        <mxCell id="QhFBb8hKMK6KciHC4_12-332" value="E" style="ellipse;whiteSpace=wrap;html=1;aspect=fixed;strokeColor=#005700;fillColor=#008a00;fontColor=#ffffff;" parent="QhFBb8hKMK6KciHC4_12-250" vertex="1">
          <mxGeometry x="630" y="1210" width="20" height="20" as="geometry" />
        </mxCell>
        <mxCell id="QhFBb8hKMK6KciHC4_12-333" value="E" style="ellipse;whiteSpace=wrap;html=1;aspect=fixed;strokeColor=#005700;fillColor=#008a00;fontColor=#ffffff;" parent="QhFBb8hKMK6KciHC4_12-250" vertex="1">
          <mxGeometry x="710" y="1210" width="20" height="20" as="geometry" />
        </mxCell>
        <mxCell id="QhFBb8hKMK6KciHC4_12-334" value="E" style="ellipse;whiteSpace=wrap;html=1;aspect=fixed;strokeColor=#005700;fillColor=#008a00;fontColor=#ffffff;" parent="QhFBb8hKMK6KciHC4_12-250" vertex="1">
          <mxGeometry x="790" y="1210" width="20" height="20" as="geometry" />
        </mxCell>
        <mxCell id="QhFBb8hKMK6KciHC4_12-335" value="E" style="ellipse;whiteSpace=wrap;html=1;aspect=fixed;strokeColor=#005700;fillColor=#008a00;fontColor=#ffffff;" parent="QhFBb8hKMK6KciHC4_12-250" vertex="1">
          <mxGeometry x="870" y="1210" width="20" height="20" as="geometry" />
        </mxCell>
        <mxCell id="QhFBb8hKMK6KciHC4_12-336" value="E" style="ellipse;whiteSpace=wrap;html=1;aspect=fixed;strokeColor=#005700;fillColor=#008a00;fontColor=#ffffff;" parent="QhFBb8hKMK6KciHC4_12-250" vertex="1">
          <mxGeometry x="950" y="1210" width="20" height="20" as="geometry" />
        </mxCell>
        <mxCell id="QhFBb8hKMK6KciHC4_12-337" value="E" style="ellipse;whiteSpace=wrap;html=1;aspect=fixed;strokeColor=#005700;fillColor=#008a00;fontColor=#ffffff;" parent="QhFBb8hKMK6KciHC4_12-250" vertex="1">
          <mxGeometry x="1030" y="1210" width="20" height="20" as="geometry" />
        </mxCell>
        <mxCell id="QhFBb8hKMK6KciHC4_12-338" value="E" style="ellipse;whiteSpace=wrap;html=1;aspect=fixed;strokeColor=#005700;fillColor=#008a00;fontColor=#ffffff;" parent="QhFBb8hKMK6KciHC4_12-250" vertex="1">
          <mxGeometry x="1110" y="1210" width="20" height="20" as="geometry" />
        </mxCell>
        <mxCell id="QhFBb8hKMK6KciHC4_12-339" value="E" style="ellipse;whiteSpace=wrap;html=1;aspect=fixed;strokeColor=#005700;fillColor=#008a00;fontColor=#ffffff;" parent="QhFBb8hKMK6KciHC4_12-250" vertex="1">
          <mxGeometry x="1190" y="1210" width="20" height="20" as="geometry" />
        </mxCell>
        <mxCell id="QhFBb8hKMK6KciHC4_12-340" value="E" style="ellipse;whiteSpace=wrap;html=1;aspect=fixed;strokeColor=#005700;fillColor=#008a00;fontColor=#ffffff;" parent="QhFBb8hKMK6KciHC4_12-250" vertex="1">
          <mxGeometry x="1270" y="1210" width="20" height="20" as="geometry" />
        </mxCell>
        <mxCell id="Pxgu1QlIMK_49DVXGXGE-2" value="Abacaxi" style="" parent="0" />
        <mxCell id="Pxgu1QlIMK_49DVXGXGE-3" value="A" style="ellipse;whiteSpace=wrap;html=1;aspect=fixed;strokeColor=#B20000;fillColor=#000000;fontColor=#ffffff;" vertex="1" parent="Pxgu1QlIMK_49DVXGXGE-2">
          <mxGeometry x="190" y="310" width="20" height="20" as="geometry" />
        </mxCell>
        <mxCell id="Pxgu1QlIMK_49DVXGXGE-4" value="A" style="ellipse;whiteSpace=wrap;html=1;aspect=fixed;strokeColor=#B20000;fillColor=#000000;fontColor=#ffffff;" vertex="1" parent="Pxgu1QlIMK_49DVXGXGE-2">
          <mxGeometry x="270" y="310" width="20" height="20" as="geometry" />
        </mxCell>
        <mxCell id="Pxgu1QlIMK_49DVXGXGE-5" value="A" style="ellipse;whiteSpace=wrap;html=1;aspect=fixed;strokeColor=#B20000;fillColor=#000000;fontColor=#ffffff;" vertex="1" parent="Pxgu1QlIMK_49DVXGXGE-2">
          <mxGeometry x="350" y="310" width="20" height="20" as="geometry" />
        </mxCell>
        <mxCell id="Pxgu1QlIMK_49DVXGXGE-6" value="A" style="ellipse;whiteSpace=wrap;html=1;aspect=fixed;strokeColor=#B20000;fillColor=#000000;fontColor=#ffffff;" vertex="1" parent="Pxgu1QlIMK_49DVXGXGE-2">
          <mxGeometry x="430" y="310" width="20" height="20" as="geometry" />
        </mxCell>
        <mxCell id="Pxgu1QlIMK_49DVXGXGE-14" value="Palma Forrageira" parent="0" />
        <mxCell id="Pxgu1QlIMK_49DVXGXGE-19" value="" style="rhombus;whiteSpace=wrap;html=1;strokeColor=#2D7600;fillColor=#60a917;fontColor=#ffffff;" vertex="1" parent="Pxgu1QlIMK_49DVXGXGE-14">
          <mxGeometry x="-280" y="270" width="10" height="10" as="geometry" />
        </mxCell>
        <mxCell id="Pxgu1QlIMK_49DVXGXGE-21" value="Feijao" parent="0" />
        <mxCell id="x2G6_W8t0QeLckgjwfbj-10" value="Macaxeira" parent="0" />
        <mxCell id="x2G6_W8t0QeLckgjwfbj-23" value="" style="group" vertex="1" connectable="0" parent="x2G6_W8t0QeLckgjwfbj-10">
          <mxGeometry x="150" y="310" width="20" height="20" as="geometry" />
        </mxCell>
        <mxCell id="x2G6_W8t0QeLckgjwfbj-24" value="" style="endArrow=none;html=1;rounded=0;strokeWidth=5;fillColor=#ffcc99;strokeColor=#FFCC99;" edge="1" parent="x2G6_W8t0QeLckgjwfbj-23">
          <mxGeometry width="50" height="50" relative="1" as="geometry">
            <mxPoint as="sourcePoint" />
            <mxPoint x="20" y="20" as="targetPoint" />
          </mxGeometry>
        </mxCell>
        <mxCell id="x2G6_W8t0QeLckgjwfbj-25" value="" style="endArrow=none;html=1;rounded=0;strokeWidth=5;fillColor=#ffcc99;strokeColor=#FFCC99;" edge="1" parent="x2G6_W8t0QeLckgjwfbj-23">
          <mxGeometry width="50" height="50" relative="1" as="geometry">
            <mxPoint x="20" as="sourcePoint" />
            <mxPoint y="20" as="targetPoint" />
          </mxGeometry>
        </mxCell>
        <mxCell id="x2G6_W8t0QeLckgjwfbj-26" value="" style="group" vertex="1" connectable="0" parent="x2G6_W8t0QeLckgjwfbj-10">
          <mxGeometry x="230" y="310" width="20" height="20" as="geometry" />
        </mxCell>
        <mxCell id="x2G6_W8t0QeLckgjwfbj-27" value="" style="endArrow=none;html=1;rounded=0;strokeWidth=5;fillColor=#ffcc99;strokeColor=#FFCC99;" edge="1" parent="x2G6_W8t0QeLckgjwfbj-26">
          <mxGeometry width="50" height="50" relative="1" as="geometry">
            <mxPoint as="sourcePoint" />
            <mxPoint x="20" y="20" as="targetPoint" />
          </mxGeometry>
        </mxCell>
        <mxCell id="x2G6_W8t0QeLckgjwfbj-28" value="" style="endArrow=none;html=1;rounded=0;strokeWidth=5;fillColor=#ffcc99;strokeColor=#FFCC99;" edge="1" parent="x2G6_W8t0QeLckgjwfbj-26">
          <mxGeometry width="50" height="50" relative="1" as="geometry">
            <mxPoint x="20" as="sourcePoint" />
            <mxPoint y="20" as="targetPoint" />
          </mxGeometry>
        </mxCell>
        <mxCell id="x2G6_W8t0QeLckgjwfbj-29" value="" style="group" vertex="1" connectable="0" parent="x2G6_W8t0QeLckgjwfbj-10">
          <mxGeometry x="310" y="310" width="20" height="20" as="geometry" />
        </mxCell>
        <mxCell id="x2G6_W8t0QeLckgjwfbj-30" value="" style="endArrow=none;html=1;rounded=0;strokeWidth=5;fillColor=#ffcc99;strokeColor=#FFCC99;" edge="1" parent="x2G6_W8t0QeLckgjwfbj-29">
          <mxGeometry width="50" height="50" relative="1" as="geometry">
            <mxPoint as="sourcePoint" />
            <mxPoint x="20" y="20" as="targetPoint" />
          </mxGeometry>
        </mxCell>
        <mxCell id="x2G6_W8t0QeLckgjwfbj-31" value="" style="endArrow=none;html=1;rounded=0;strokeWidth=5;fillColor=#ffcc99;strokeColor=#FFCC99;" edge="1" parent="x2G6_W8t0QeLckgjwfbj-29">
          <mxGeometry width="50" height="50" relative="1" as="geometry">
            <mxPoint x="20" as="sourcePoint" />
            <mxPoint y="20" as="targetPoint" />
          </mxGeometry>
        </mxCell>
        <mxCell id="x2G6_W8t0QeLckgjwfbj-32" value="" style="group" vertex="1" connectable="0" parent="x2G6_W8t0QeLckgjwfbj-10">
          <mxGeometry x="390" y="310" width="20" height="20" as="geometry" />
        </mxCell>
        <mxCell id="x2G6_W8t0QeLckgjwfbj-33" value="" style="endArrow=none;html=1;rounded=0;strokeWidth=5;fillColor=#ffcc99;strokeColor=#FFCC99;" edge="1" parent="x2G6_W8t0QeLckgjwfbj-32">
          <mxGeometry width="50" height="50" relative="1" as="geometry">
            <mxPoint as="sourcePoint" />
            <mxPoint x="20" y="20" as="targetPoint" />
          </mxGeometry>
        </mxCell>
        <mxCell id="x2G6_W8t0QeLckgjwfbj-34" value="" style="endArrow=none;html=1;rounded=0;strokeWidth=5;fillColor=#ffcc99;strokeColor=#FFCC99;" edge="1" parent="x2G6_W8t0QeLckgjwfbj-32">
          <mxGeometry width="50" height="50" relative="1" as="geometry">
            <mxPoint x="20" as="sourcePoint" />
            <mxPoint y="20" as="targetPoint" />
          </mxGeometry>
        </mxCell>
        <mxCell id="x2G6_W8t0QeLckgjwfbj-35" value="" style="group" vertex="1" connectable="0" parent="x2G6_W8t0QeLckgjwfbj-10">
          <mxGeometry x="470" y="310" width="20" height="20" as="geometry" />
        </mxCell>
        <mxCell id="x2G6_W8t0QeLckgjwfbj-36" value="" style="endArrow=none;html=1;rounded=0;strokeWidth=5;fillColor=#ffcc99;strokeColor=#FFCC99;" edge="1" parent="x2G6_W8t0QeLckgjwfbj-35">
          <mxGeometry width="50" height="50" relative="1" as="geometry">
            <mxPoint as="sourcePoint" />
            <mxPoint x="20" y="20" as="targetPoint" />
          </mxGeometry>
        </mxCell>
        <mxCell id="x2G6_W8t0QeLckgjwfbj-37" value="" style="endArrow=none;html=1;rounded=0;strokeWidth=5;fillColor=#ffcc99;strokeColor=#FFCC99;" edge="1" parent="x2G6_W8t0QeLckgjwfbj-35">
          <mxGeometry width="50" height="50" relative="1" as="geometry">
            <mxPoint x="20" as="sourcePoint" />
            <mxPoint y="20" as="targetPoint" />
          </mxGeometry>
        </mxCell>
        <mxCell id="x2G6_W8t0QeLckgjwfbj-38" value="" style="group" vertex="1" connectable="0" parent="x2G6_W8t0QeLckgjwfbj-10">
          <mxGeometry x="550" y="310" width="20" height="20" as="geometry" />
        </mxCell>
        <mxCell id="x2G6_W8t0QeLckgjwfbj-39" value="" style="endArrow=none;html=1;rounded=0;strokeWidth=5;fillColor=#ffcc99;strokeColor=#FFCC99;" edge="1" parent="x2G6_W8t0QeLckgjwfbj-38">
          <mxGeometry width="50" height="50" relative="1" as="geometry">
            <mxPoint as="sourcePoint" />
            <mxPoint x="20" y="20" as="targetPoint" />
          </mxGeometry>
        </mxCell>
        <mxCell id="x2G6_W8t0QeLckgjwfbj-40" value="" style="endArrow=none;html=1;rounded=0;strokeWidth=5;fillColor=#ffcc99;strokeColor=#FFCC99;" edge="1" parent="x2G6_W8t0QeLckgjwfbj-38">
          <mxGeometry width="50" height="50" relative="1" as="geometry">
            <mxPoint x="20" as="sourcePoint" />
            <mxPoint y="20" as="targetPoint" />
          </mxGeometry>
        </mxCell>
        <mxCell id="x2G6_W8t0QeLckgjwfbj-41" value="" style="group" vertex="1" connectable="0" parent="x2G6_W8t0QeLckgjwfbj-10">
          <mxGeometry x="630" y="310" width="20" height="20" as="geometry" />
        </mxCell>
        <mxCell id="x2G6_W8t0QeLckgjwfbj-42" value="" style="endArrow=none;html=1;rounded=0;strokeWidth=5;fillColor=#ffcc99;strokeColor=#FFCC99;" edge="1" parent="x2G6_W8t0QeLckgjwfbj-41">
          <mxGeometry width="50" height="50" relative="1" as="geometry">
            <mxPoint as="sourcePoint" />
            <mxPoint x="20" y="20" as="targetPoint" />
          </mxGeometry>
        </mxCell>
        <mxCell id="x2G6_W8t0QeLckgjwfbj-43" value="" style="endArrow=none;html=1;rounded=0;strokeWidth=5;fillColor=#ffcc99;strokeColor=#FFCC99;" edge="1" parent="x2G6_W8t0QeLckgjwfbj-41">
          <mxGeometry width="50" height="50" relative="1" as="geometry">
            <mxPoint x="20" as="sourcePoint" />
            <mxPoint y="20" as="targetPoint" />
          </mxGeometry>
        </mxCell>
        <mxCell id="x2G6_W8t0QeLckgjwfbj-44" value="" style="group" vertex="1" connectable="0" parent="x2G6_W8t0QeLckgjwfbj-10">
          <mxGeometry x="710" y="310" width="20" height="20" as="geometry" />
        </mxCell>
        <mxCell id="x2G6_W8t0QeLckgjwfbj-45" value="" style="endArrow=none;html=1;rounded=0;strokeWidth=5;fillColor=#ffcc99;strokeColor=#FFCC99;" edge="1" parent="x2G6_W8t0QeLckgjwfbj-44">
          <mxGeometry width="50" height="50" relative="1" as="geometry">
            <mxPoint as="sourcePoint" />
            <mxPoint x="20" y="20" as="targetPoint" />
          </mxGeometry>
        </mxCell>
        <mxCell id="x2G6_W8t0QeLckgjwfbj-46" value="" style="endArrow=none;html=1;rounded=0;strokeWidth=5;fillColor=#ffcc99;strokeColor=#FFCC99;" edge="1" parent="x2G6_W8t0QeLckgjwfbj-44">
          <mxGeometry width="50" height="50" relative="1" as="geometry">
            <mxPoint x="20" as="sourcePoint" />
            <mxPoint y="20" as="targetPoint" />
          </mxGeometry>
        </mxCell>
        <mxCell id="x2G6_W8t0QeLckgjwfbj-47" value="" style="group" vertex="1" connectable="0" parent="x2G6_W8t0QeLckgjwfbj-10">
          <mxGeometry x="790" y="310" width="20" height="20" as="geometry" />
        </mxCell>
        <mxCell id="x2G6_W8t0QeLckgjwfbj-48" value="" style="endArrow=none;html=1;rounded=0;strokeWidth=5;fillColor=#ffcc99;strokeColor=#FFCC99;" edge="1" parent="x2G6_W8t0QeLckgjwfbj-47">
          <mxGeometry width="50" height="50" relative="1" as="geometry">
            <mxPoint as="sourcePoint" />
            <mxPoint x="20" y="20" as="targetPoint" />
          </mxGeometry>
        </mxCell>
        <mxCell id="x2G6_W8t0QeLckgjwfbj-49" value="" style="endArrow=none;html=1;rounded=0;strokeWidth=5;fillColor=#ffcc99;strokeColor=#FFCC99;" edge="1" parent="x2G6_W8t0QeLckgjwfbj-47">
          <mxGeometry width="50" height="50" relative="1" as="geometry">
            <mxPoint x="20" as="sourcePoint" />
            <mxPoint y="20" as="targetPoint" />
          </mxGeometry>
        </mxCell>
        <mxCell id="x2G6_W8t0QeLckgjwfbj-50" value="" style="group" vertex="1" connectable="0" parent="x2G6_W8t0QeLckgjwfbj-10">
          <mxGeometry x="870" y="310" width="20" height="20" as="geometry" />
        </mxCell>
        <mxCell id="x2G6_W8t0QeLckgjwfbj-51" value="" style="endArrow=none;html=1;rounded=0;strokeWidth=5;fillColor=#ffcc99;strokeColor=#FFCC99;" edge="1" parent="x2G6_W8t0QeLckgjwfbj-50">
          <mxGeometry width="50" height="50" relative="1" as="geometry">
            <mxPoint as="sourcePoint" />
            <mxPoint x="20" y="20" as="targetPoint" />
          </mxGeometry>
        </mxCell>
        <mxCell id="x2G6_W8t0QeLckgjwfbj-52" value="" style="endArrow=none;html=1;rounded=0;strokeWidth=5;fillColor=#ffcc99;strokeColor=#FFCC99;" edge="1" parent="x2G6_W8t0QeLckgjwfbj-50">
          <mxGeometry width="50" height="50" relative="1" as="geometry">
            <mxPoint x="20" as="sourcePoint" />
            <mxPoint y="20" as="targetPoint" />
          </mxGeometry>
        </mxCell>
        <mxCell id="x2G6_W8t0QeLckgjwfbj-53" value="" style="group" vertex="1" connectable="0" parent="x2G6_W8t0QeLckgjwfbj-10">
          <mxGeometry x="950" y="310" width="20" height="20" as="geometry" />
        </mxCell>
        <mxCell id="x2G6_W8t0QeLckgjwfbj-54" value="" style="endArrow=none;html=1;rounded=0;strokeWidth=5;fillColor=#ffcc99;strokeColor=#FFCC99;" edge="1" parent="x2G6_W8t0QeLckgjwfbj-53">
          <mxGeometry width="50" height="50" relative="1" as="geometry">
            <mxPoint as="sourcePoint" />
            <mxPoint x="20" y="20" as="targetPoint" />
          </mxGeometry>
        </mxCell>
        <mxCell id="x2G6_W8t0QeLckgjwfbj-55" value="" style="endArrow=none;html=1;rounded=0;strokeWidth=5;fillColor=#ffcc99;strokeColor=#FFCC99;" edge="1" parent="x2G6_W8t0QeLckgjwfbj-53">
          <mxGeometry width="50" height="50" relative="1" as="geometry">
            <mxPoint x="20" as="sourcePoint" />
            <mxPoint y="20" as="targetPoint" />
          </mxGeometry>
        </mxCell>
        <mxCell id="x2G6_W8t0QeLckgjwfbj-56" value="" style="group" vertex="1" connectable="0" parent="x2G6_W8t0QeLckgjwfbj-10">
          <mxGeometry x="1030" y="310" width="20" height="20" as="geometry" />
        </mxCell>
        <mxCell id="x2G6_W8t0QeLckgjwfbj-57" value="" style="endArrow=none;html=1;rounded=0;strokeWidth=5;fillColor=#ffcc99;strokeColor=#FFCC99;" edge="1" parent="x2G6_W8t0QeLckgjwfbj-56">
          <mxGeometry width="50" height="50" relative="1" as="geometry">
            <mxPoint as="sourcePoint" />
            <mxPoint x="20" y="20" as="targetPoint" />
          </mxGeometry>
        </mxCell>
        <mxCell id="x2G6_W8t0QeLckgjwfbj-58" value="" style="endArrow=none;html=1;rounded=0;strokeWidth=5;fillColor=#ffcc99;strokeColor=#FFCC99;" edge="1" parent="x2G6_W8t0QeLckgjwfbj-56">
          <mxGeometry width="50" height="50" relative="1" as="geometry">
            <mxPoint x="20" as="sourcePoint" />
            <mxPoint y="20" as="targetPoint" />
          </mxGeometry>
        </mxCell>
        <mxCell id="x2G6_W8t0QeLckgjwfbj-59" value="" style="group" vertex="1" connectable="0" parent="x2G6_W8t0QeLckgjwfbj-10">
          <mxGeometry x="1110" y="310" width="20" height="20" as="geometry" />
        </mxCell>
        <mxCell id="x2G6_W8t0QeLckgjwfbj-60" value="" style="endArrow=none;html=1;rounded=0;strokeWidth=5;fillColor=#ffcc99;strokeColor=#FFCC99;" edge="1" parent="x2G6_W8t0QeLckgjwfbj-59">
          <mxGeometry width="50" height="50" relative="1" as="geometry">
            <mxPoint as="sourcePoint" />
            <mxPoint x="20" y="20" as="targetPoint" />
          </mxGeometry>
        </mxCell>
        <mxCell id="x2G6_W8t0QeLckgjwfbj-61" value="" style="endArrow=none;html=1;rounded=0;strokeWidth=5;fillColor=#ffcc99;strokeColor=#FFCC99;" edge="1" parent="x2G6_W8t0QeLckgjwfbj-59">
          <mxGeometry width="50" height="50" relative="1" as="geometry">
            <mxPoint x="20" as="sourcePoint" />
            <mxPoint y="20" as="targetPoint" />
          </mxGeometry>
        </mxCell>
        <mxCell id="x2G6_W8t0QeLckgjwfbj-62" value="" style="group" vertex="1" connectable="0" parent="x2G6_W8t0QeLckgjwfbj-10">
          <mxGeometry x="1190" y="310" width="20" height="20" as="geometry" />
        </mxCell>
        <mxCell id="x2G6_W8t0QeLckgjwfbj-63" value="" style="endArrow=none;html=1;rounded=0;strokeWidth=5;fillColor=#ffcc99;strokeColor=#FFCC99;" edge="1" parent="x2G6_W8t0QeLckgjwfbj-62">
          <mxGeometry width="50" height="50" relative="1" as="geometry">
            <mxPoint as="sourcePoint" />
            <mxPoint x="20" y="20" as="targetPoint" />
          </mxGeometry>
        </mxCell>
        <mxCell id="x2G6_W8t0QeLckgjwfbj-64" value="" style="endArrow=none;html=1;rounded=0;strokeWidth=5;fillColor=#ffcc99;strokeColor=#FFCC99;" edge="1" parent="x2G6_W8t0QeLckgjwfbj-62">
          <mxGeometry width="50" height="50" relative="1" as="geometry">
            <mxPoint x="20" as="sourcePoint" />
            <mxPoint y="20" as="targetPoint" />
          </mxGeometry>
        </mxCell>
        <mxCell id="x2G6_W8t0QeLckgjwfbj-65" value="" style="group" vertex="1" connectable="0" parent="x2G6_W8t0QeLckgjwfbj-10">
          <mxGeometry x="1270" y="310" width="20" height="20" as="geometry" />
        </mxCell>
        <mxCell id="x2G6_W8t0QeLckgjwfbj-66" value="" style="endArrow=none;html=1;rounded=0;strokeWidth=5;fillColor=#ffcc99;strokeColor=#FFCC99;" edge="1" parent="x2G6_W8t0QeLckgjwfbj-65">
          <mxGeometry width="50" height="50" relative="1" as="geometry">
            <mxPoint as="sourcePoint" />
            <mxPoint x="20" y="20" as="targetPoint" />
          </mxGeometry>
        </mxCell>
        <mxCell id="x2G6_W8t0QeLckgjwfbj-67" value="" style="endArrow=none;html=1;rounded=0;strokeWidth=5;fillColor=#ffcc99;strokeColor=#FFCC99;" edge="1" parent="x2G6_W8t0QeLckgjwfbj-65">
          <mxGeometry width="50" height="50" relative="1" as="geometry">
            <mxPoint x="20" as="sourcePoint" />
            <mxPoint y="20" as="targetPoint" />
          </mxGeometry>
        </mxCell>
        <mxCell id="x2G6_W8t0QeLckgjwfbj-68" value="A" style="ellipse;whiteSpace=wrap;html=1;aspect=fixed;strokeColor=#B20000;fillColor=#000000;fontColor=#ffffff;" vertex="1" parent="x2G6_W8t0QeLckgjwfbj-10">
          <mxGeometry x="510" y="310" width="20" height="20" as="geometry" />
        </mxCell>
        <mxCell id="x2G6_W8t0QeLckgjwfbj-69" value="A" style="ellipse;whiteSpace=wrap;html=1;aspect=fixed;strokeColor=#B20000;fillColor=#000000;fontColor=#ffffff;" vertex="1" parent="x2G6_W8t0QeLckgjwfbj-10">
          <mxGeometry x="590" y="310" width="20" height="20" as="geometry" />
        </mxCell>
        <mxCell id="x2G6_W8t0QeLckgjwfbj-70" value="A" style="ellipse;whiteSpace=wrap;html=1;aspect=fixed;strokeColor=#B20000;fillColor=#000000;fontColor=#ffffff;" vertex="1" parent="x2G6_W8t0QeLckgjwfbj-10">
          <mxGeometry x="670" y="310" width="20" height="20" as="geometry" />
        </mxCell>
        <mxCell id="x2G6_W8t0QeLckgjwfbj-71" value="A" style="ellipse;whiteSpace=wrap;html=1;aspect=fixed;strokeColor=#B20000;fillColor=#000000;fontColor=#ffffff;" vertex="1" parent="x2G6_W8t0QeLckgjwfbj-10">
          <mxGeometry x="750" y="310" width="20" height="20" as="geometry" />
        </mxCell>
        <mxCell id="x2G6_W8t0QeLckgjwfbj-72" value="A" style="ellipse;whiteSpace=wrap;html=1;aspect=fixed;strokeColor=#B20000;fillColor=#000000;fontColor=#ffffff;" vertex="1" parent="x2G6_W8t0QeLckgjwfbj-10">
          <mxGeometry x="827" y="310" width="20" height="20" as="geometry" />
        </mxCell>
        <mxCell id="x2G6_W8t0QeLckgjwfbj-73" value="A" style="ellipse;whiteSpace=wrap;html=1;aspect=fixed;strokeColor=#B20000;fillColor=#000000;fontColor=#ffffff;" vertex="1" parent="x2G6_W8t0QeLckgjwfbj-10">
          <mxGeometry x="910" y="310" width="20" height="20" as="geometry" />
        </mxCell>
        <mxCell id="x2G6_W8t0QeLckgjwfbj-74" value="A" style="ellipse;whiteSpace=wrap;html=1;aspect=fixed;strokeColor=#B20000;fillColor=#000000;fontColor=#ffffff;" vertex="1" parent="x2G6_W8t0QeLckgjwfbj-10">
          <mxGeometry x="990" y="310" width="20" height="20" as="geometry" />
        </mxCell>
        <mxCell id="x2G6_W8t0QeLckgjwfbj-75" value="A" style="ellipse;whiteSpace=wrap;html=1;aspect=fixed;strokeColor=#B20000;fillColor=#000000;fontColor=#ffffff;" vertex="1" parent="x2G6_W8t0QeLckgjwfbj-10">
          <mxGeometry x="1070" y="310" width="20" height="20" as="geometry" />
        </mxCell>
        <mxCell id="x2G6_W8t0QeLckgjwfbj-76" value="A" style="ellipse;whiteSpace=wrap;html=1;aspect=fixed;strokeColor=#B20000;fillColor=#000000;fontColor=#ffffff;" vertex="1" parent="x2G6_W8t0QeLckgjwfbj-10">
          <mxGeometry x="1150" y="310" width="20" height="20" as="geometry" />
        </mxCell>
        <mxCell id="x2G6_W8t0QeLckgjwfbj-77" value="A" style="ellipse;whiteSpace=wrap;html=1;aspect=fixed;strokeColor=#B20000;fillColor=#000000;fontColor=#ffffff;" vertex="1" parent="x2G6_W8t0QeLckgjwfbj-10">
          <mxGeometry x="1230.5" y="310" width="20" height="20" as="geometry" />
        </mxCell>
      </root>
    </mxGraphModel>
  </diagram>
  <diagram id="rhrCdt2yykEGS66_DlKv" name="Page-2">
    <mxGraphModel dx="976" dy="743" grid="1" gridSize="10" guides="1" tooltips="1" connect="1" arrows="1" fold="1" page="1" pageScale="1" pageWidth="827" pageHeight="1169" math="0" shadow="0">
      <root>
        <mxCell id="0" />
        <mxCell id="1" parent="0" />
        <mxCell id="hlM8r75JSslt6fziHg1t-1" value="Abacaxi" style="text;html=1;strokeColor=none;fillColor=none;align=center;verticalAlign=middle;whiteSpace=wrap;rounded=0;" vertex="1" parent="1">
          <mxGeometry x="380" y="370" width="60" height="30" as="geometry" />
        </mxCell>
        <mxCell id="hlM8r75JSslt6fziHg1t-2" value="" style="endArrow=none;dashed=1;html=1;dashPattern=1 3;strokeWidth=2;rounded=0;" edge="1" parent="1">
          <mxGeometry width="50" height="50" relative="1" as="geometry">
            <mxPoint x="310" y="360" as="sourcePoint" />
            <mxPoint x="480" y="360" as="targetPoint" />
          </mxGeometry>
        </mxCell>
        <mxCell id="hlM8r75JSslt6fziHg1t-4" value="Extrato baixo" style="text;html=1;align=center;verticalAlign=middle;resizable=0;points=[];autosize=1;strokeColor=none;fillColor=none;" vertex="1" parent="1">
          <mxGeometry y="370" width="90" height="30" as="geometry" />
        </mxCell>
        <mxCell id="hlM8r75JSslt6fziHg1t-5" value="Emergente" style="text;html=1;align=center;verticalAlign=middle;resizable=0;points=[];autosize=1;strokeColor=none;fillColor=none;" vertex="1" parent="1">
          <mxGeometry y="198" width="80" height="30" as="geometry" />
        </mxCell>
        <mxCell id="hlM8r75JSslt6fziHg1t-6" value="Eucalipto" style="text;html=1;align=center;verticalAlign=middle;resizable=0;points=[];autosize=1;strokeColor=none;fillColor=none;" vertex="1" parent="1">
          <mxGeometry x="355" y="198" width="70" height="30" as="geometry" />
        </mxCell>
      </root>
    </mxGraphModel>
  </diagram>
</mxfile>
